# xmcd
#
# Track frame offsets:
#	183
#	20670
#	40533
#	46448
#	104368
#	121643
#	135148
#	142828
#
# Disc length: 2774 seconds
#
# Revision: 0
# Processed by: cddbd v1.5.1PL0 Copyright (c) Steve Scherf et al.
# Submitted via: dBpowerAMP V4.0
#
DISCID=590ad408
DTITLE=Doors - Live Recordings Vol I
DYEAR=1900
DGENRE=Blues
TTITLE0=Universal Mind
TTITLE1=Unknown Soldier
TTITLE2=Spanish Caravan
TTITLE3=The Celebration Of The Lizard
TTITLE4=Close To You
TTITLE5=You Make Me Real
TTITLE6=Wake Up
TTITLE7=When The Music's Over
EXTD=Dzambic Denis
EXTT0=
EXTT1=
EXTT2=
EXTT3=
EXTT4=
EXTT5=
EXTT6=
EXTT7=
PLAYORDER=
